<?xml version="1.0" encoding="UTF-8" standalone="no"?><!DOCTYPE svg PUBLIC "-//W3C//DTD SVG 1.1//EN" "http://www.w3.org/Graphics/SVG/1.1/DTD/svg11.dtd"><svg width="100%" height="100%" viewBox="0 0 143 143" version="1.1" xmlns="http://www.w3.org/2000/svg" xmlns:xlink="http://www.w3.org/1999/xlink" xml:space="preserve" xmlns:serif="http://www.serif.com/" style="fill-rule:evenodd;clip-rule:evenodd;stroke-linejoin:round;stroke-miterlimit:2;"><g><g><path d="M46.107,89.895l-0,-58.247l27.233,0.419c-0,0 20.759,-0.139 20.949,20.25c0.195,21.061 -18.463,23.239 -18.463,23.239l-15.167,0.28l0.07,14.005l0.001,0.118c-0.016,-0.007 -14.615,-0.089 -14.623,-0.064Zm14.623,0.064c0,-0 0,-0 0,-0l0,-0Zm-14.623,-0.064l-0,0c-0,0 -0,0 -0,0Zm14.385,-44.56l-0,16.758l11.695,-0.117c-0,0 7.721,-1.419 7.438,-9.379c-0.247,-6.927 -8.52,-7.235 -8.52,-7.235l-10.613,-0.027Z" style="fill:#00aeec;"/><path d="M46.107,98.151c-0,0 28.838,0.217 32.819,-0.585c4.883,-0.983 6.238,-3.152 6.648,-9.385c0.38,-5.775 -3.715,-10.586 -3.715,-10.586c0,0 4.254,-1.947 6.163,-3.365c2.128,-1.581 5.149,-4.455 5.149,-4.455c0,-0 7.039,4.413 7.402,18.714c0.56,22.059 -20.809,22.345 -20.809,22.345l-33.657,-0l-0,-12.683Z"/></g><path d="M71.292,0c39.348,0 71.293,31.922 71.293,71.241c-0,39.319 -31.945,71.241 -71.293,71.241c-39.347,-0 -71.292,-31.922 -71.292,-71.241c-0,-39.319 31.945,-71.241 71.292,-71.241Zm0,9.157c-34.289,0 -62.128,27.819 -62.128,62.084c-0,34.265 27.839,62.084 62.128,62.084c34.29,-0 62.129,-27.819 62.129,-62.084c0,-34.265 -27.839,-62.084 -62.129,-62.084Z" style="fill:#00aeec;"/></g></svg>